<svg version="1.1" xmlns="http://www.w3.org/2000/svg" xmlns:xlink="http://www.w3.org/1999/xlink" width="38.47088" height="36" viewBox="0,0,38.47088,36"><g transform="translate(-151.22355,-175.15624)"><g data-paper-data="{&quot;isPaintingLayer&quot;:true}" fill-rule="nonzero" stroke="none" stroke-linecap="butt" stroke-linejoin="miter" stroke-miterlimit="10" stroke-dasharray="" stroke-dashoffset="0" style="mix-blend-mode: normal"><path d="M151.22355,211.15625v-36h38v36z" data-paper-data="{&quot;index&quot;:null}" fill="#ffffff" stroke-width="0"/><path d="M172.99132,187.38848l-0.73182,0.26803c2.86904,0.05311 5.71552,0.62233 8.52083,1.22599c1.92863,0.41502 4.25767,-0.05487 5.80065,1.17438c1.71859,1.36915 3.53882,3.72041 3.02507,5.85681c-0.46407,1.92981 -3.36709,2.11717 -5.15159,2.98614c-2.99691,1.45934 -6.22231,2.39319 -9.33346,3.58979c0,0 -2.33336,0.89744 -3.23081,-1.43592c-0.89744,-2.33336 1.43592,-3.23081 1.43592,-3.23081c0.95739,-0.36823 1.89863,-0.7709 2.83604,-1.16664h-1.93859c-3.95318,0 -8.69953,-0.70628 -12.59954,-0.03228c-2.12949,0.36802 -4.2395,1.01177 -6.40046,1.03228c0,0 -2.5,0 -2.5,-2.5c0,-2.5 2.5,-2.5 2.5,-2.5c1.89403,0.02352 3.72952,-0.66612 5.59954,-0.96772c3.01516,-0.48629 6.37883,-0.29485 9.60921,-0.1454l-0.97652,-0.61912c0,0 -1.76777,-1.76776 0,-3.53553c1.76776,-1.76777 3.53553,0 3.53553,0zM178.67264,193.57245c0.03293,0.17762 0.05092,0.37171 0.05092,0.58379c0,0.78135 -0.24421,1.3185 -0.57997,1.68777c2.15667,-0.84 4.33917,-1.48924 6.69747,-1.4452c0.32841,0.00613 -0.64887,-0.10353 -0.97493,-0.14319c-1.35347,-0.16462 -2.72134,-0.22848 -4.06329,-0.46961c-0.37673,-0.0677 -0.75342,-0.1398 -1.1302,-0.21356z" data-paper-data="{&quot;index&quot;:null}" fill="#000000" stroke-width="0.5"/></g></g></svg>