<svg version="1.1" xmlns="http://www.w3.org/2000/svg" xmlns:xlink="http://www.w3.org/1999/xlink" width="701.51318" height="625.26039" viewBox="0,0,701.51318,625.26039"><g transform="translate(94.61857,94.10416)"><g data-paper-data="{&quot;isPaintingLayer&quot;:true}" fill-rule="nonzero" stroke-linecap="butt" stroke-linejoin="miter" stroke-miterlimit="10" stroke-dasharray="" stroke-dashoffset="0" style="mix-blend-mode: normal"><path d="" fill="#858585" stroke="none" stroke-width="0"/><path d="" fill="#858585" stroke="none" stroke-width="0"/><path d="M455.32361,212.91384c0.23507,1.18715 0.02373,2.4318 -0.12913,3.66308v-4.31786c0.04271,0.21751 0.08576,0.43574 0.12913,0.65478z" fill="#858585" stroke="none" stroke-width="0"/><path d="M19.69443,72.15623v-118h437v118z" fill="#303030" stroke="none" stroke-width="NaN"/><path d="M416.81925,313.15623v-269h32.55121v118.20504c-0.09726,0.98141 -0.16183,1.96491 -0.17598,2.95074c0,0 0,0.67656 0.17598,1.67772v146.1665z" fill="#303030" stroke="none" stroke-width="0"/><path d="M22.69446,531.15624v-281c0,0 133.09288,8 203.5,8c71.57371,0 222.5,-8 222.5,-8v281z" fill="#303030" stroke="none" stroke-width="0"/><path d="M-94.61857,118.11125c0,0 39.2916,-106.63087 68.33529,-139.12025c22.688,-25.37966 91.61668,-39.80814 91.61668,-39.80814l12.67409,11.32994l-159.95197,178.92839z" data-paper-data="{&quot;index&quot;:null}" fill="#303030" stroke="none" stroke-width="0"/><path d="M22.13579,297.15623v-269h32.55121v269z" fill="#303030" stroke="none" stroke-width="0"/><path d="M552.33336,116.44118l-159.95197,-178.92838l12.6741,-11.32993c0,0 167.62853,-39.90552 196.34657,-7.78043c23.57979,26.37725 -36.39459,186.70882 -36.39459,186.70882z" data-paper-data="{&quot;index&quot;:null}" fill="#303030" stroke="none" stroke-width="0"/><path d="M-89.49999,433.31202v-504h122.69443v504z" fill="#4b4b4b" stroke="none" stroke-width="0"/><path d="M436.19447,511.31202v-577h151.99993v173.62253c-8.22403,1.34323 -14.18745,3.18453 -15.08311,5.70858l-3.81679,1.50662c-9.75232,3.87643 -13.12185,7.65364 -18.1187,11.56046c-3.73608,2.92106 -10.1694,5.87515 -8.01192,8.82366c1.91406,2.61592 10.86541,4.87262 7.6,7.55633c-1.65125,1.35709 -6.24591,2.63723 -7.6,4c-2.89127,2.90983 3.49509,6.12751 0,9c-3.71822,3.05584 -7.83195,6.12739 -8.16939,9.22183c0,0 0,4.23086 20.91496,7.18865c-3.68311,1.17463 -5.71497,2.46177 -5.71497,3.81135c0,2.44528 6.67029,4.68557 17.74736,6.42303c-1.66174,0.82217 -2.54737,1.68596 -2.54737,2.57697c0,1.4423 2.32058,2.81329 6.49731,4.05184c-2.74565,1.97629 -6.07019,3.9452 -6.49731,5.94816c0,6.25599 7.1975,11.63191 16.18138,17.60182c3.44447,2.28889 -5.72303,4.79152 0,7c2.12724,0.82089 4.28518,1.65924 6.61861,2.4929v288.90528z" fill="#4b4b4b" stroke="none" stroke-width="0"/><path d="M53.19446,260.31201v-17c0,0 -1.2328,-11.85475 150,-12c211.42661,-0.20307 215,12 215,12v17z" fill="#535353" stroke="none" stroke-width="0"/><g><path d="M82.19446,299.81201c0,-28.44266 23.05734,-51.5 51.5,-51.5c28.44266,0 51.5,23.05734 51.5,51.5c0,28.44266 -23.05734,51.5 -51.5,51.5c-28.44266,0 -51.5,-23.05734 -51.5,-51.5z" fill="none" stroke="#000000" stroke-width="25"/><path d="M154.19446,339.81202c-8.68848,0 -11.33779,-6.03918 -12.14562,-9.72213c-3.45058,-4.39045 -6.34514,-8.07555 -9.29935,-11.59529c-1.23752,1.35369 -2.55094,2.6981 -3.3261,4.30931c-1.22829,2.55308 -1.93517,5.36777 -3.41756,7.78219c-0.15984,0.26033 -0.77275,0.05208 -0.84773,0.34822c-0.24544,0.96941 0.32825,2.05541 0,3c-0.61108,1.7585 -1.82314,3.24639 -2.73471,4.86959l-0.3704,1.46095c0,0 -3.95285,11.85854 -15.81139,7.90569c-11.85854,-3.95285 -7.90569,-15.81139 -7.90569,-15.81139l1.6296,-4.53905c0.42176,-0.3768 1.09964,-0.58965 1.26529,-1.13041c0.2929,-0.95614 -0.34233,-2.06042 0,-3c0.73847,-2.02681 2.12585,-3.75449 3.15227,-5.65178c1.06787,-1.97391 1.56451,-4.21768 2.58244,-6.21781c0.4442,-0.87281 4.82227,-7.52214 5.56216,-8.43297c0.25627,-0.31547 0.83502,-0.29217 1.03364,-0.64678c0.31965,-0.57069 0.11702,-1.33255 0.40419,-1.92025c1.15119,-2.35594 2.40553,-4.71495 3.7444,-7.01674c0.13485,-6.65306 1.1285,-13.11541 2.04538,-19.72309c0.78382,-5.64874 -0.06083,-12.03783 -0.06083,-17.76828c0,0 0,-12.5 12.5,-12.5c12.5,0 12.5,12.5 12.5,12.5c0,6.62336 0.69467,13.65704 -0.06083,20.23172c-0.6095,5.30408 -1.5615,10.47972 -1.85206,15.73501c7.69762,8.02422 13.46131,15.47242 21.22393,25.28771l2.68897,9.74555c0,0 0,12.5 -12.5,12.5z" fill="#000000" stroke="none" stroke-width="0.5"/></g><path d="M83.19445,300.31201c0,16.01626 -12.31217,29 -27.5,29c-15.18783,0 -27.5,-12.98374 -27.5,-29c0,-16.01626 12.31217,-29 27.5,-29c15.18783,0 27.5,12.98374 27.5,29z" fill="#ffd262" stroke="none" stroke-width="NaN"/><path d="M238.19445,306.31201c0,16.01626 -12.31217,29 -27.5,29c-15.18783,0 -27.5,-12.98374 -27.5,-29c0,-16.01626 12.31217,-29 27.5,-29c15.18783,0 27.5,12.98374 27.5,29z" fill="#ffd262" stroke="none" stroke-width="NaN"/><path d="M7.61862,405.73735l34.32385,-119.15483l28.82778,8.30416l-34.32385,119.15483z" fill="#ffd262" stroke="none" stroke-width="0"/><path d="M233.94248,431.04151l-34.32385,-119.15483l28.82779,-8.30416l34.32385,119.15483z" data-paper-data="{&quot;index&quot;:null}" fill="#ffd262" stroke="none" stroke-width="0"/><path d="M208.54166,30.67856v-33h25v33z" fill="#4b4b4b" stroke="#000000" stroke-width="2"/><path d="M189.54166,58.67856v-32h64v32z" fill="#4b4b4b" stroke="#000000" stroke-width="2"/><path d="M195.54166,54.67856v-22h53v22z" fill="#00fff1" stroke="#000000" stroke-width="2"/></g></g></svg>