<svg version="1.1" xmlns="http://www.w3.org/2000/svg" xmlns:xlink="http://www.w3.org/1999/xlink" width="701.5132" height="622.26039" viewBox="0,0,701.5132,622.26039"><g transform="translate(94.61859,94.10415)"><g data-paper-data="{&quot;isPaintingLayer&quot;:true}" fill-rule="nonzero" stroke-linecap="butt" stroke-linejoin="miter" stroke-miterlimit="10" stroke-dasharray="" stroke-dashoffset="0" style="mix-blend-mode: normal"><path d="M19.69443,72.15623v-118h437v118z" fill="#303030" stroke="none" stroke-width="NaN"/><path d="" fill="#858585" stroke="none" stroke-width="0"/><path d="" fill="#858585" stroke="none" stroke-width="0"/><path d="M455.32359,212.91384c0.23507,1.18715 0.02373,2.4318 -0.12913,3.66308v-4.31786c0.04271,0.21751 0.08576,0.43574 0.12913,0.65478z" fill="#858585" stroke="none" stroke-width="0"/><path d="M19.69443,72.15623v-118h437v118z" fill="#303030" stroke="none" stroke-width="NaN"/><path d="M22.13577,297.15623v-269h32.55121v269z" fill="#303030" stroke="none" stroke-width="0"/><path d="M416.81922,313.15623v-269h32.55121v118.20504c-0.09726,0.98141 -0.16183,1.96491 -0.17598,2.95074c0,0 0,0.67656 0.17598,1.67772v146.1665z" fill="#303030" stroke="none" stroke-width="0"/><path d="M19.69444,528.15624v-281c0,0 133.09288,8 203.5,8c71.57371,0 222.5,-8 222.5,-8v281z" fill="#303030" stroke="none" stroke-width="0"/><path d="M-94.61859,118.11125c0,0 39.2916,-106.63087 68.33529,-139.12025c22.688,-25.37966 91.61668,-39.80814 91.61668,-39.80814l12.67409,11.32994l-159.95197,178.92839z" data-paper-data="{&quot;index&quot;:null}" fill="#303030" stroke="none" stroke-width="0"/><path d="M552.33336,116.44118l-159.95197,-178.92838l12.6741,-11.32993c0,0 167.62853,-39.90552 196.34657,-7.78043c23.57979,26.37725 -36.39459,186.70882 -36.39459,186.70882z" data-paper-data="{&quot;index&quot;:null}" fill="#303030" stroke="none" stroke-width="0"/><path d="M-92.49999,433.31202v-504h125.69443v504z" fill="#4b4b4b" stroke="none" stroke-width="0"/><path d="M436.19445,511.31202v-577h146.99994v173.62253c-7.95351,1.34323 -13.72075,3.18453 -14.58695,5.70858l-3.69124,1.50662c-9.43152,3.87643 -12.69021,7.65364 -17.52269,11.56046c-3.61318,2.92106 -9.83488,5.87515 -7.74837,8.82366c1.8511,2.61592 10.508,4.87262 7.35,7.55633c-1.59693,1.35709 -6.04045,2.63723 -7.35,4c-2.79616,2.90983 3.38012,6.12751 0,9c-3.59591,3.05584 -7.57432,6.12739 -7.90066,9.22183c0,0 0,4.23086 20.22697,7.18865c-3.56196,1.17463 -5.52698,2.46177 -5.52698,3.81135c0,2.44528 6.45087,4.68557 17.16357,6.42303c-1.60708,0.82217 -2.46357,1.68596 -2.46357,2.57697c0,1.4423 2.24425,2.81329 6.28359,4.05184c-2.65533,1.97629 -5.87052,3.9452 -6.28359,5.94816c0,6.25599 6.96074,11.63191 15.6491,17.60182c3.33117,2.28889 -5.53477,4.79152 0,7c2.05726,0.82089 4.14422,1.65924 6.40089,2.4929v288.90528z" fill="#4b4b4b" stroke="none" stroke-width="0"/><path d="M53.19444,260.31201v-17c0,0 -1.2328,-11.85475 150,-12c211.42661,-0.20307 215,12 215,12v17z" fill="#535353" stroke="none" stroke-width="0"/><g><g><path d="M88.82868,322.94659c-12.9123,-25.3428 -2.83538,-56.35469 22.50742,-69.26699c25.3428,-12.9123 56.35469,-2.83538 69.26699,22.50742c12.9123,25.3428 2.83538,56.35469 -22.50742,69.26699c-25.3428,12.9123 -56.35469,2.83538 -69.26699,-22.50742z" fill="none" stroke="#000000" stroke-width="25"/><path d="M171.14072,325.90083c-7.74155,3.94437 -12.84377,-0.2339 -15.23553,-3.14873c-5.06767,-2.34547 -9.31972,-4.31488 -13.54984,-6.10988c-0.4881,1.76796 -1.04805,3.56211 -1.00728,5.34963c0.06461,2.83244 0.71258,5.66128 0.48784,8.48553c-0.02424,0.30452 -0.66489,0.39721 -0.59726,0.69512c0.2214,0.97518 1.22558,1.68238 1.36193,2.67304c0.25384,1.84426 -0.15066,3.72024 -0.22599,5.58037l0.33321,1.46988c0,0 1.86145,12.36062 -10.49917,14.22208c-12.36062,1.86145 -14.22208,-10.49917 -14.22208,-10.49917l-0.60863,-4.78416c0.20474,-0.5272 0.71211,-1.0246 0.61421,-1.58162c-0.17309,-0.9849 -1.2404,-1.68045 -1.36193,-2.67304c-0.26214,-2.14116 0.18971,-4.31039 0.24294,-6.46687c0.05538,-2.24357 -0.52073,-4.46826 -0.52175,-6.71252c-0.00045,-0.97934 0.88183,-8.89153 1.12759,-10.03898c0.08512,-0.39743 0.61138,-0.63941 0.62736,-1.04554c0.02573,-0.65361 -0.50068,-1.24044 -0.51161,-1.89446c-0.04382,-2.62179 0.00288,-5.29314 0.15088,-7.95188c-2.90018,-5.98919 -4.94858,-12.19832 -7.13136,-18.5021c-1.866,-5.38894 -5.51909,-10.69826 -8.12058,-15.80417c0,0 -5.67471,-11.13767 5.46297,-16.81238c11.13767,-5.67471 16.81238,5.46297 16.81238,5.46297c3.00685,5.9015 6.81893,11.85325 9.13052,18.05436c1.86485,5.00271 3.36623,10.04646 5.49311,14.8609c10.50149,3.65515 19.01833,7.67502 30.39084,12.89653l6.82016,7.46269c0,0 5.67471,11.13767 -5.46297,16.81238z" fill="#000000" stroke="none" stroke-width="0.5"/></g><path d="M93.19443,332.31201c0,16.01626 -12.31217,29 -27.5,29c-15.18783,0 -27.5,-12.98374 -27.5,-29c0,-16.01626 12.31217,-29 27.5,-29c15.18783,0 27.5,12.98374 27.5,29z" fill="#ffd262" stroke="none" stroke-width="NaN"/><path d="M229.19443,258.31201c0,16.01626 -12.31217,29 -27.5,29c-15.18783,0 -27.5,-12.98374 -27.5,-29c0,-16.01626 12.31217,-29 27.5,-29c15.18783,0 27.5,12.98374 27.5,29z" fill="#ffd262" stroke="none" stroke-width="NaN"/><path d="M65.5865,464.2048l-12.62817,-123.35529l29.84403,-3.05521l12.62816,123.3553z" fill="#ffd262" stroke="none" stroke-width="0"/><path d="M223.31506,450.90923l-33.14939,-171.81816l28.90812,-11.53252l33.14939,171.81817z" fill="#ffd262" stroke="none" stroke-width="0"/></g><path d="M208.54166,30.67856v-33h25v33z" fill="#4b4b4b" stroke="#000000" stroke-width="2"/><path d="M189.54166,58.67856v-32h64v32z" fill="#4b4b4b" stroke="#000000" stroke-width="2"/><path d="M195.54166,54.67856v-22h53v22z" fill="#00fff1" stroke="#000000" stroke-width="2"/></g></g></svg>