<svg version="1.1" xmlns="http://www.w3.org/2000/svg" xmlns:xlink="http://www.w3.org/1999/xlink" width="701.5132" height="625.26039" viewBox="0,0,701.5132,625.26039"><g transform="translate(94.61859,94.10416)"><g data-paper-data="{&quot;isPaintingLayer&quot;:true}" fill-rule="nonzero" stroke-linecap="butt" stroke-linejoin="miter" stroke-miterlimit="10" stroke-dasharray="" stroke-dashoffset="0" style="mix-blend-mode: normal"><path d="M19.69443,72.15623v-118h437v118z" fill="#303030" stroke="none" stroke-width="NaN"/><path d="" fill="#858585" stroke="none" stroke-width="0"/><path d="" fill="#858585" stroke="none" stroke-width="0"/><path d="M455.32359,212.91384c0.23507,1.18715 0.02373,2.4318 -0.12913,3.66308v-4.31786c0.04271,0.21751 0.08576,0.43574 0.12913,0.65478z" fill="#858585" stroke="none" stroke-width="0"/><path d="M19.69443,72.15623v-118h437v118z" fill="#303030" stroke="none" stroke-width="NaN"/><path d="M22.13577,297.15623v-269h32.55121v269z" fill="#303030" stroke="none" stroke-width="0"/><path d="M416.81922,313.15623v-269h32.55121v118.20504c-0.09726,0.98141 -0.16183,1.96491 -0.17598,2.95074c0,0 0,0.67656 0.17598,1.67772v146.1665z" fill="#303030" stroke="none" stroke-width="0"/><path d="M20.94115,531.15624v-281c0,0 133.09288,8 203.5,8c71.57371,0 222.5,-8 222.5,-8v281z" fill="#303030" stroke="none" stroke-width="0"/><path d="M-94.61859,118.11125c0,0 39.2916,-106.63087 68.33529,-139.12025c22.688,-25.37966 91.61668,-39.80814 91.61668,-39.80814l12.67409,11.32994l-159.95197,178.92839z" data-paper-data="{&quot;index&quot;:null}" fill="#303030" stroke="none" stroke-width="0"/><path d="M552.33336,116.44118l-159.95197,-178.92838l12.6741,-11.32993c0,0 167.62853,-39.90552 196.34657,-7.78043c23.57979,26.37725 -36.39459,186.70882 -36.39459,186.70882z" data-paper-data="{&quot;index&quot;:null}" fill="#303030" stroke="none" stroke-width="0"/><path d="M-65.80557,433.31202v-504h99v504z" fill="#4b4b4b" stroke="none" stroke-width="0"/><path d="M436.19445,511.31202v-577h108.99996v173.62253c-5.8975,1.34323 -10.17389,3.18453 -10.81617,5.70858l-2.73704,1.50662c-6.99344,3.87643 -9.40975,7.65364 -12.99301,11.56046c-2.67916,2.92106 -7.29253,5.87515 -5.74539,8.82366c1.37258,2.61592 7.79164,4.87262 5.45,7.55633c-1.18412,1.35709 -4.47897,2.63723 -5.45,4c-2.07334,2.90983 2.50634,6.12751 0,9c-2.66636,3.05584 -5.61633,6.12739 -5.85831,9.22183c0,0 0,4.23086 14.99823,7.18865c-2.64118,1.17463 -4.09823,2.46177 -4.09823,3.81135c0,2.44528 4.7833,4.68557 12.72673,6.42303c-1.19164,0.82217 -1.82673,1.68596 -1.82673,2.57697c0,1.4423 1.6641,2.81329 4.65926,4.05184c-1.96892,1.97629 -4.35297,3.9452 -4.65926,5.94816c0,6.25599 5.16137,11.63191 11.60375,17.60182c2.47005,2.28889 -4.10401,4.79152 0,7c1.52545,0.82089 3.07293,1.65924 4.74624,2.4929v288.90528z" fill="#4b4b4b" stroke="none" stroke-width="0"/><path d="M53.19444,260.31201v-17c0,0 -1.2328,-11.85475 150,-12c211.42661,-0.20307 215,12 215,12v17z" fill="#535353" stroke="none" stroke-width="0"/><g data-paper-data="{&quot;index&quot;:null}"><g><path d="M104.32195,346.45401c-25.3428,-12.9123 -35.41972,-43.92419 -22.50742,-69.26699c12.9123,-25.3428 43.92419,-35.41972 69.26699,-22.50742c25.3428,12.9123 35.41972,43.92419 22.50742,69.26699c-12.9123,25.3428 -43.92419,35.41972 -69.26699,22.50742z" fill="none" stroke="#000000" stroke-width="25"/><path d="M91.27694,326.90081c-11.13768,-5.67471 -5.46297,-16.81238 -5.46297,-16.81238l6.82016,-7.46269c11.37251,-5.22151 19.88935,-9.24138 30.39084,-12.89653c2.12688,-4.81444 3.62826,-9.85819 5.49311,-14.8609c2.31159,-6.20111 6.12367,-12.15286 9.13052,-18.05436c0,0 5.67471,-11.13768 16.81238,-5.46297c11.13768,5.67471 5.46297,16.81238 5.46297,16.81238c-2.60149,5.10591 -6.25458,10.41523 -8.12058,15.80417c-2.18278,6.30378 -4.23118,12.51291 -7.13136,18.5021c0.148,2.65874 0.1947,5.33009 0.15088,7.95188c-0.01093,0.65402 -0.53734,1.24085 -0.51161,1.89446c0.01598,0.40613 0.54224,0.64811 0.62736,1.04554c0.24576,1.14745 1.12804,9.05964 1.12759,10.03898c-0.00102,2.24426 -0.57713,4.46895 -0.52175,6.71252c0.05323,2.15648 0.50508,4.32571 0.24294,6.46687c-0.12153,0.99259 -1.18884,1.68814 -1.36193,2.67304c-0.0979,0.55702 0.40947,1.05442 0.61421,1.58162l-0.60863,4.78416c0,0 -1.86146,12.36062 -14.22208,10.49917c-12.36062,-1.86146 -10.49917,-14.22208 -10.49917,-14.22208l0.33321,-1.46988c-0.07533,-1.86013 -0.47983,-3.73611 -0.22599,-5.58037c0.13635,-0.99066 1.14053,-1.69786 1.36193,-2.67304c0.06763,-0.29791 -0.57302,-0.3906 -0.59726,-0.69512c-0.22474,-2.82425 0.42323,-5.65309 0.48784,-8.48553c0.04077,-1.78752 -0.51918,-3.58167 -1.00728,-5.34963c-4.23012,1.795 -8.48217,3.76441 -13.54984,6.10988c-2.39176,2.91483 -7.49398,7.0931 -15.23553,3.14873z" fill="#000000" stroke="none" stroke-width="0.5"/></g><path d="M196.72319,304.31201c15.18783,0 27.5,12.98374 27.5,29c0,16.01626 -12.31217,29 -27.5,29c-15.18783,0 -27.5,-12.98374 -27.5,-29c0,-16.01626 12.31217,-29 27.5,-29z" fill="#ffd262" stroke="none" stroke-width="NaN"/><path d="M60.72319,230.31201c15.18783,0 27.5,12.98374 27.5,29c0,16.01626 -12.31217,29 -27.5,29c-15.18783,0 -27.5,-12.98374 -27.5,-29c0,-16.01626 12.31217,-29 27.5,-29z" fill="#ffd262" stroke="none" stroke-width="NaN"/><path d="M166.9871,462.1496l12.62816,-123.3553l29.84403,3.05521l-12.62817,123.35529z" fill="#ffd262" stroke="none" stroke-width="0"/><path d="M10.19443,440.37672l33.14939,-171.81817l28.90812,11.53252l-33.14939,171.81816z" fill="#ffd262" stroke="none" stroke-width="0"/></g><path d="M208.54166,30.67856v-33h25v33z" fill="#4b4b4b" stroke="#000000" stroke-width="2"/><path d="M189.54166,58.67856v-32h64v32z" fill="#4b4b4b" stroke="#000000" stroke-width="2"/><path d="M195.54166,54.67856v-22h53v22z" fill="#00fff1" stroke="#000000" stroke-width="2"/></g></g></svg>