<svg version="1.1" xmlns="http://www.w3.org/2000/svg" xmlns:xlink="http://www.w3.org/1999/xlink" width="38.47088" height="36" viewBox="0,0,38.47088,36"><g transform="translate(-151.22355,-175.15623)"><g data-paper-data="{&quot;isPaintingLayer&quot;:true}" fill-rule="nonzero" stroke="none" stroke-linecap="butt" stroke-linejoin="miter" stroke-miterlimit="10" stroke-dasharray="" stroke-dashoffset="0" style="mix-blend-mode: normal"><path d="M151.69443,211.15624v-36h38v36z" fill="#ffffff" stroke-width="0"/><path d="M171.46219,187.38847c1.76777,1.76777 0,3.53553 0,3.53553l-0.97652,0.61912c3.23038,-0.14945 6.59405,-0.34089 9.60921,0.1454c1.87002,0.3016 3.70551,0.99124 5.59954,0.96772c0,0 2.5,0 2.5,2.5c0,2.5 -2.5,2.5 -2.5,2.5c-2.16096,-0.02051 -4.27097,-0.66426 -6.40046,-1.03228c-3.90001,-0.674 -8.64636,0.03228 -12.59954,0.03228h-1.93859c0.93741,0.39574 1.87865,0.79841 2.83604,1.16664c0,0 2.33336,0.89745 1.43592,3.23081c-0.89745,2.33336 -3.23081,1.43592 -3.23081,1.43592c-3.11115,-1.1966 -6.33655,-2.13045 -9.33346,-3.58979c-1.7845,-0.86897 -4.68752,-1.05633 -5.15159,-2.98614c-0.51375,-2.1364 1.30648,-4.48766 3.02507,-5.85681c1.54298,-1.22925 3.87202,-0.75936 5.80065,-1.17438c2.80531,-0.60366 5.65179,-1.17288 8.52083,-1.22599l-0.73182,-0.26803c0,0 1.76777,-1.76777 3.53553,0zM161.11514,193.786c-1.34195,0.24113 -2.70982,0.30499 -4.06329,0.46961c-0.32606,0.03966 -1.30334,0.14932 -0.97493,0.14319c2.3583,-0.04404 4.5408,0.6052 6.69747,1.4452c-0.33576,-0.36927 -0.57997,-0.90642 -0.57997,-1.68777c0,-0.21208 0.01799,-0.40617 0.05092,-0.58379c-0.37678,0.07376 -0.75347,0.14586 -1.1302,0.21356z" fill="#000000" stroke-width="0.5"/></g></g></svg>